<?xml version="1.0" encoding="UTF-8"?>
<svg xmlns="http://www.w3.org/2000/svg" xmlns:xlink="http://www.w3.org/1999/xlink" width="50px" height="50px" viewBox="0 0 50 50" version="1.1">
<defs>
<filter id="alpha" filterUnits="objectBoundingBox" x="0%" y="0%" width="100%" height="100%">
  <feColorMatrix type="matrix" in="SourceGraphic" values="0 0 0 0 1 0 0 0 0 1 0 0 0 0 1 0 0 0 1 0"/>
</filter>
<mask id="mask0">
  <g filter="url(#alpha)">
<rect x="0" y="0" width="50" height="50" style="fill:rgb(0%,0%,0%);fill-opacity:0.780392;stroke:none;"/>
  </g>
</mask>
<clipPath id="clip1">
  <rect x="0" y="0" width="50" height="50"/>
</clipPath>
<g id="surface5" clip-path="url(#clip1)">
<path style=" stroke:none;fill-rule:evenodd;fill:rgb(0%,0%,0%);fill-opacity:1;" d="M 49.738281 25.941406 C 50.160156 25.035156 49.964844 23.917969 49.179688 23.214844 L 39.164062 14.195312 C 38.203125 13.332031 36.722656 13.410156 35.855469 14.371094 C 34.988281 15.332031 35.066406 16.8125 36.027344 17.679688 L 44.148438 24.992188 L 35.980469 32.34375 C 35.015625 33.210938 34.941406 34.695312 35.804688 35.65625 C 36.671875 36.617188 38.152344 36.695312 39.117188 35.828125 L 49.132812 26.8125 C 49.398438 26.570312 49.605469 26.273438 49.738281 25.941406 Z M 5.855469 24.96875 L 13.976562 17.660156 C 14.9375 16.792969 15.015625 15.3125 14.148438 14.351562 C 13.285156 13.386719 11.800781 13.308594 10.839844 14.175781 L 0.824219 23.195312 C 0.0429688 23.898438 -0.15625 25.011719 0.265625 25.921875 C 0.398438 26.253906 0.605469 26.550781 0.875 26.789062 L 10.886719 35.808594 C 11.851562 36.675781 13.332031 36.597656 14.199219 35.632812 C 15.0625 34.671875 14.988281 33.191406 14.023438 32.324219 Z M 31.714844 6.554688 C 32.929688 6.996094 33.558594 8.34375 33.113281 9.558594 L 21.289062 42.042969 C 20.847656 43.261719 19.503906 43.886719 18.285156 43.445312 C 17.070312 43.003906 16.441406 41.65625 16.886719 40.441406 L 28.710938 7.957031 C 29.152344 6.738281 30.496094 6.113281 31.714844 6.554688 Z M 31.714844 6.554688 "/>
</g>
</defs>
<g id="surface1">
<use xlink:href="#surface5" mask="url(#mask0)"/>
</g>
</svg>
